<svg xmlns="http://www.w3.org/2000/svg" width="1254" height="836" viewBox="0 0 1254 836">
<g>
<path d="M 310.24 473.33 L 310.50 388.65 L 330.50 375.86 C356.85,359.01 356.74,359.07 357.42,359.75 C357.74,360.07 358.00,404.81 358.00,459.17 L 358.00 558.00 L 333.99 558.00 L 309.99 558.00 L 310.24 473.33 ZM 370.46 556.75 C370.20,556.06 370.10,529.68 370.24,498.12 L 370.50 440.74 L 385.00 432.78 C399.94,424.58 440.87,402.23 451.50,396.47 C454.80,394.68 467.40,387.84 479.50,381.26 C491.60,374.68 505.10,367.35 509.50,364.97 C513.90,362.59 519.66,359.37 522.29,357.82 C524.93,356.27 527.29,355.00 527.54,355.00 C527.79,355.00 528.00,400.67 528.00,456.50 L 528.00 558.00 L 501.00 558.00 L 474.00 558.00 L 474.00 485.97 L 474.00 413.95 L 466.25 418.18 C461.99,420.51 448.15,428.12 435.50,435.08 L 412.50 447.74 L 412.24 502.87 L 411.98 558.00 L 391.46 558.00 C375.96,558.00 370.82,557.69 370.46,556.75 ZM 701.33 547.63 C695.37,544.79 689.02,538.66 686.43,533.24 C684.08,528.33 683.31,514.56 685.04,508.24 C688.63,495.10 700.06,487.00 715.01,487.00 C728.10,487.00 738.23,492.77 743.77,503.38 C746.16,507.94 746.45,509.60 746.45,518.50 C746.46,529.82 744.83,534.30 738.14,541.33 C732.07,547.73 727.91,549.34 716.50,549.74 C707.52,550.06 705.97,549.84 701.33,547.63 ZM 723.93 537.54 C733.45,532.61 736.79,517.34 730.70,506.53 C723.53,493.79 706.15,494.05 699.25,507.00 C697.18,510.90 696.90,512.57 697.20,519.50 C697.58,528.37 699.65,532.73 705.40,536.82 C709.12,539.46 719.44,539.86 723.93,537.54 ZM 615.45 547.74 C615.19,547.04 615.09,533.43 615.23,517.49 L 615.50 488.50 L 622.56 488.21 L 629.61 487.92 L 641.08 504.21 C647.39,513.17 653.89,522.62 655.53,525.21 C657.16,527.81 658.72,529.94 659.00,529.96 C659.28,529.99 659.37,520.55 659.21,509.00 L 658.92 488.00 L 664.96 488.00 L 671.00 488.00 L 671.00 518.55 L 671.00 549.09 L 664.36 548.80 L 657.72 548.50 L 643.44 528.13 C635.59,516.93 628.79,507.39 628.33,506.93 C627.87,506.47 627.64,515.75 627.81,527.55 L 628.11 549.00 L 622.02 549.00 C618.05,549.00 615.77,548.56 615.45,547.74 ZM 770.43 539.29 C768.37,533.91 763.44,521.17 759.47,511.00 C749.32,484.95 749.51,487.85 758.02,488.20 L 765.20 488.50 L 770.14 502.00 C772.86,509.42 776.62,519.76 778.49,524.97 C780.37,530.20 782.14,533.79 782.44,532.97 C782.74,532.16 783.62,529.47 784.39,527.00 C785.17,524.53 788.14,515.97 790.99,508.00 C793.84,500.02 796.51,492.38 796.91,491.00 C797.60,488.64 798.04,488.50 804.57,488.50 C808.68,488.50 811.41,488.91 811.27,489.50 C811.14,490.05 806.10,503.55 800.07,519.50 L 789.10 548.50 L 781.64 548.79 L 774.19 549.08 L 770.43 539.29 ZM 813.82 548.48 C813.19,547.86 813.59,546.69 821.48,526.00 C828.34,508.00 830.87,501.28 833.33,494.50 L 835.51 488.50 L 843.17 488.21 C850.42,487.93 850.88,488.05 851.53,490.21 C852.50,493.45 855.55,501.35 865.40,526.17 C870.13,538.08 874.00,548.10 874.00,548.42 C874.00,548.74 870.93,549.00 867.17,549.00 L 860.34 549.00 L 857.21 540.75 L 854.08 532.50 L 842.91 533.00 L 831.74 533.50 L 829.00 541.00 L 826.26 548.50 L 820.34 548.79 C817.08,548.95 814.15,548.81 813.82,548.48 ZM 850.47 521.25 C850.06,520.29 848.26,515.29 846.48,510.16 L 843.24 500.81 L 841.64 505.16 C840.76,507.54 838.93,512.54 837.57,516.25 L 835.09 523.00 L 843.15 523.00 C850.45,523.00 851.14,522.83 850.47,521.25 ZM 675.00 466.96 C643.17,463.11 621.00,442.72 612.42,409.42 C610.05,400.22 609.89,398.26 610.28,382.50 C610.64,368.37 611.09,364.32 612.97,358.50 C621.57,331.87 639.29,314.44 665.00,307.33 C674.18,304.80 700.80,304.78 709.78,307.30 C731.16,313.32 746.64,328.20 752.51,348.38 C753.43,351.55 754.03,354.28 753.84,354.44 C753.65,354.61 747.65,355.74 740.50,356.96 C733.35,358.17 726.78,359.37 725.89,359.61 C724.70,359.93 723.73,358.53 722.12,354.11 C719.29,346.34 712.42,339.01 704.50,335.31 C699.01,332.74 697.52,332.50 686.95,332.50 C675.60,332.50 675.26,332.57 667.76,336.27 C658.59,340.81 653.17,346.48 648.29,356.66 C638.89,376.29 640.49,406.11 651.87,423.04 C659.32,434.14 670.37,439.85 686.00,440.71 C694.00,441.15 696.50,440.89 701.83,439.08 C709.82,436.36 715.13,432.86 718.39,428.16 C721.25,424.03 725.00,413.93 725.00,410.34 L 725.00 408.00 L 705.00 408.00 L 685.00 408.00 L 685.00 395.50 L 685.00 383.00 L 720.11 383.00 L 755.22 383.00 L 754.75 400.75 C754.25,419.62 753.18,424.79 747.40,436.19 C742.05,446.75 729.44,457.43 716.00,462.80 C705.76,466.88 688.70,468.61 675.00,466.96 ZM 773.00 386.52 L 773.00 308.04 L 775.64 307.37 C777.10,307.01 792.96,306.97 810.89,307.29 C836.02,307.73 844.84,308.22 849.33,309.44 C867.14,314.26 879.50,324.86 885.70,340.64 C888.14,346.83 888.40,348.77 888.42,360.50 C888.45,373.07 888.33,373.76 885.07,381.40 C882.52,387.36 880.19,390.83 875.59,395.51 C863.61,407.72 852.60,411.00 823.54,411.00 L 805.00 411.00 L 805.00 438.00 L 805.00 465.00 L 789.00 465.00 L 773.00 465.00 L 773.00 386.52 ZM 843.40 383.48 C850.74,379.77 854.46,375.24 856.49,367.50 C860.16,353.58 854.77,341.29 842.62,335.84 C838.10,333.81 835.59,333.50 821.25,333.18 L 805.00 332.83 L 805.00 360.02 L 805.00 387.21 L 821.25 386.84 C836.95,386.48 837.70,386.37 843.40,383.48 ZM 370.24 359.86 L 370.50 288.71 L 377.50 283.96 C398.20,269.89 436.26,245.00 437.07,245.00 C437.64,245.00 438.00,274.17 438.00,319.44 L 438.00 393.87 L 429.25 398.79 C424.44,401.49 416.45,405.87 411.50,408.52 C406.55,411.17 397.39,416.19 391.14,419.67 C384.89,423.15 379.59,426.00 379.37,426.00 C379.14,426.00 377.18,427.12 375.00,428.50 C372.82,429.88 370.80,431.00 370.51,431.00 C370.22,431.00 370.10,398.99 370.24,359.86 ZM 450.00 342.17 C450.00,315.64 450.39,295.88 450.91,295.56 C451.41,295.25 465.80,304.27 482.89,315.62 C517.47,338.57 515.92,336.98 514.30,347.83 L 513.50 353.17 L 483.00 370.17 C466.23,379.53 451.94,387.41 451.25,387.70 C450.26,388.11 450.00,378.61 450.00,342.17 Z" fill="rgba(0,0,0,1)"/>
</g>
</svg>