<svg xmlns="http://www.w3.org/2000/svg" width="268" height="147" viewBox="0 0 268 147">
<g>
<path d="M 2.24 104.88 L 2.50 66.75 L 12.42 60.38 C17.88,56.87 22.71,54.00 23.17,54.00 C23.63,54.00 24.00,74.03 24.00,98.50 L 24.00 143.00 L 12.99 143.00 L 1.98 143.00 L 2.24 104.88 ZM 29.67 142.33 C28.85,141.52 29.01,106.12 29.87,96.61 L 30.50 89.72 L 65.00 70.89 C83.97,60.54 99.84,52.05 100.25,52.03 C100.66,52.01 101.00,72.47 101.00,97.50 L 101.00 143.00 L 88.50 143.00 L 76.00 143.00 L 76.00 111.00 C76.00,93.40 75.72,79.00 75.39,79.00 C75.05,79.00 69.04,82.16 62.03,86.02 L 49.29 93.04 L 48.64 100.67 C48.29,104.87 48.00,116.11 48.00,125.65 L 48.00 143.00 L 39.17 143.00 C34.31,143.00 30.03,142.70 29.67,142.33 ZM 179.07 138.25 C173.79,135.56 171.61,131.88 171.55,125.57 C171.49,119.13 173.72,115.45 179.36,112.64 C186.88,108.91 196.91,113.11 198.92,120.82 C201.05,128.98 197.13,137.04 190.07,139.00 C185.05,140.39 183.00,140.25 179.07,138.25 ZM 190.69 132.59 C193.02,130.58 193.50,129.38 193.50,125.50 C193.50,121.62 193.02,120.42 190.69,118.41 C186.71,114.99 182.80,115.26 179.48,119.20 C177.23,121.88 176.88,123.06 177.33,126.45 C177.95,131.07 181.70,135.00 185.50,135.00 C186.81,135.00 189.15,133.91 190.69,132.59 ZM 140.00 125.44 L 140.00 111.88 L 143.69 112.19 C147.10,112.48 147.85,113.18 153.44,121.32 L 159.50 130.14 L 159.79 121.07 C160.07,112.18 160.12,112.00 162.54,112.00 L 165.00 112.00 L 165.00 125.50 L 165.00 139.00 L 162.20 139.00 C159.80,139.00 158.46,137.67 152.95,129.84 L 146.50 120.68 L 146.21 129.84 L 145.92 139.00 L 142.96 139.00 L 140.00 139.00 L 140.00 125.44 ZM 210.91 136.25 C210.33,134.74 208.09,128.97 205.93,123.44 C203.77,117.91 202.00,113.05 202.00,112.63 C202.00,112.21 203.42,112.01 205.15,112.19 C208.14,112.48 208.46,112.95 211.47,121.32 C213.21,126.16 215.06,130.04 215.57,129.93 C216.08,129.82 217.87,125.85 219.55,121.12 C222.45,112.90 222.75,112.49 225.80,112.19 L 229.00 111.87 L 226.10 119.69 C218.33,140.62 219.22,139.00 215.40,139.00 C212.56,139.00 211.77,138.52 210.91,136.25 ZM 230.05 138.25 C230.08,137.84 232.24,131.88 234.85,125.00 L 239.60 112.50 L 243.10 112.20 L 246.61 111.90 L 251.27 123.70 C253.83,130.19 256.22,136.29 256.57,137.25 C257.10,138.68 256.64,139.00 254.12,139.00 C251.53,139.00 250.79,138.43 249.56,135.50 C248.17,132.16 247.87,132.00 243.12,132.00 C238.32,132.00 238.08,132.14 236.86,135.50 C235.83,138.36 235.09,139.00 232.80,139.00 C231.26,139.00 230.02,138.66 230.05,138.25 ZM 245.56 127.23 C246.28,126.73 246.09,125.11 244.97,122.12 L 243.32 117.74 L 241.66 121.89 C240.75,124.17 240.00,126.48 240.00,127.02 C240.00,128.16 244.00,128.31 245.56,127.23 ZM 159.82 100.48 C153.06,98.32 145.00,90.58 141.41,82.79 C138.73,77.00 138.50,75.58 138.50,65.00 C138.50,54.26 138.69,53.11 141.43,47.71 C144.86,40.94 151.24,34.70 157.82,31.68 C161.66,29.91 164.38,29.53 173.00,29.53 C184.30,29.53 187.91,30.69 194.82,36.50 C198.14,39.29 203.72,49.61 202.55,50.78 C202.16,51.18 199.17,51.99 195.92,52.58 L 189.99 53.66 L 187.51 49.43 C182.47,40.82 170.82,38.54 161.94,44.42 C151.07,51.61 149.23,73.61 158.62,84.00 C162.94,88.78 167.42,90.35 175.12,89.80 C183.51,89.19 188.45,85.03 189.24,77.89 C189.49,75.55 189.32,75.49 180.75,75.21 L 172.00 74.92 L 172.00 69.46 L 172.00 64.00 L 187.33 64.00 C195.77,64.00 202.86,64.19 203.10,64.43 C203.33,64.67 203.25,69.05 202.92,74.18 C202.03,87.79 198.50,93.57 187.62,99.24 C182.25,102.03 166.84,102.72 159.82,100.48 ZM 212.00 66.50 C212.00,47.53 211.89,31.66 211.75,31.25 C211.35,30.04 241.07,29.81 245.82,30.99 C255.75,33.46 262.66,41.28 263.68,51.20 C264.40,58.29 262.63,64.30 258.42,68.95 C253.18,74.76 249.26,76.18 236.83,76.77 L 226.00 77.28 L 226.00 89.14 L 226.00 101.00 L 219.00 101.00 L 212.00 101.00 L 212.00 66.50 ZM 244.68 63.39 C251.27,58.47 251.28,47.97 244.70,43.96 C242.26,42.47 239.67,42.01 233.75,42.00 L 226.00 42.00 L 226.00 54.11 L 226.00 66.21 L 233.93 65.85 C240.05,65.57 242.51,65.01 244.68,63.39 ZM 29.00 64.25 C29.01,52.84 29.30,38.45 29.66,32.28 L 30.30 21.06 L 44.64 11.53 C52.52,6.29 59.21,2.00 59.50,2.00 C59.79,2.00 59.91,17.18 59.76,35.74 L 59.50 69.48 L 45.50 77.21 C37.80,81.47 30.94,84.96 30.25,84.97 C29.29,84.99 29.00,80.20 29.00,64.25 ZM 65.51 57.10 C64.78,47.84 65.75,24.95 66.87,25.06 C68.27,25.19 93.39,42.62 94.31,44.10 C94.85,44.97 95.00,46.86 94.64,48.28 C94.13,50.35 91.30,52.37 80.81,58.19 C73.55,62.21 67.31,65.63 66.92,65.80 C66.53,65.96 65.90,62.05 65.51,57.10 Z" fill="rgba(0,0,0,1)"/>
</g>
</svg>